0
SECTION
2
HEADER
9
$ACADVER
1
AC1015
9
$EXTMIN
10
-1000.0
20
-1000.0
30
0.0
9
$EXTMAX
10
5000.0
20
5000.0
30
0.0
0
ENDSEC
0
SECTION
2
TABLES
0
TABLE
2
LTYPE
70
1
0
LTYPE
2
CONTINUOUS
70
0
72
0
73
0
40
0.0
0
ENDTAB
0
TABLE
2
LAYER
70
7
0
LAYER
2
Tubos
70
0
62
7
6
CONTINUOUS
0
LAYER
2
Valvulas
70
0
62
7
6
CONTINUOUS
0
LAYER
2
Conexoes
70
0
62
7
6
CONTINUOUS
0
LAYER
2
Suportes
70
0
62
7
6
CONTINUOUS
0
LAYER
2
Cotas
70
0
62
7
6
CONTINUOUS
0
LAYER
2
BOM
70
0
62
7
6
CONTINUOUS
0
LAYER
2
0
70
0
62
7
6
CONTINUOUS
0
ENDTAB
0
TABLE
2
STYLE
70
1
0
STYLE
2
STANDARD
70
0
40
0.0
41
1.0
50
0.0
71
0
0
ENDTAB
0
ENDSEC
0
SECTION
2
ENTITIES
0
TEXT
5
101
8
0
62
1
10
-1000.0
20
500.0
30
0.0
40
5.0
1
Isométrico de Tubulação — Viga W610x125 (8.0m)
50
0.0
7
STANDARD
0
TEXT
5
102
8
0
62
7
10
-1000.0
20
485.0
30
0.0
40
2.0
1
Data: 26/03/2026 09:15:54
50
0.0
7
STANDARD
0
LINE
5
103
8
Tubos
62
1
10
-2000.00
20
1000.00
30
0.0
11
6000.00
21
5000.00
31
0.0
39
50
0
TEXT
5
104
8
Tubos
10
2000.00
20
3000.00
30
0.0
40
3.00
1
Tubo de suporte (8m x Ø75)
50
0.0
7
STANDARD
0
LINE
5
105
8
Tubos
62
1
10
0.00
20
2000.00
30
0.0
11
1500.00
21
1250.00
31
0.0
39
50
0
TEXT
5
106
8
Tubos
10
750.00
20
1625.00
30
0.0
40
3.00
1
Descida 1 (1.5m x Ø50)
50
0.0
7
STANDARD
0
LINE
5
107
8
Tubos
62
1
10
3000.00
20
3500.00
30
0.0
11
4500.00
21
1750.00
31
0.0
39
50
0
TEXT
5
108
8
Tubos
10
3750.00
20
2625.00
30
0.0
40
3.00
1
Descida 2 (1.5m x Ø40)
50
0.0
7
STANDARD
0
LWPOLYLINE
5
109
8
Valvulas
62
1
90
5
10
-2015.00
20
1000.00
30
0.0
10
-2000.00
20
1015.00
30
0.0
10
-1985.00
20
1000.00
30
0.0
10
-2000.00
20
985.00
30
0.0
10
-2015.00
20
1000.00
30
0.0
0
LINE
5
10A
8
Valvulas
62
1
10
-2010.50
20
989.50
30
0.0
11
-1989.50
21
1010.50
31
0.0
0
TEXT
5
10B
8
Valvulas
10
-2000.00
20
1015.00
30
0.0
40
3.00
1
V. Gaveta (Entrada)
50
0.0
7
STANDARD
0
LINE
5
10C
8
Conexoes
62
7
10
-15.00
20
2000.00
30
0.0
11
15.00
21
2000.00
31
0.0
0
LINE
5
10D
8
Conexoes
62
7
10
0.00
20
2000.00
30
0.0
11
0.00
21
2015.00
31
0.0
0
TEXT
5
10E
8
Valvulas
10
0.00
20
2015.00
30
0.0
40
3.00
1
Tee #1
50
0.0
7
STANDARD
0
CIRCLE
5
10F
8
Valvulas
62
3
10
1500.00
20
1250.00
30
0.0
40
15.00
0
LINE
5
110
8
Valvulas
62
3
10
1485.00
20
1250.00
30
0.0
11
1515.00
21
1250.00
31
0.0
0
TEXT
5
111
8
Valvulas
10
1500.00
20
1265.00
30
0.0
40
3.00
1
V. Globo
50
0.0
7
STANDARD
0
LINE
5
112
8
Conexoes
62
7
10
2985.00
20
3500.00
30
0.0
11
3015.00
21
3500.00
31
0.0
0
LINE
5
113
8
Conexoes
62
7
10
3000.00
20
3500.00
30
0.0
11
3000.00
21
3515.00
31
0.0
0
TEXT
5
114
8
Valvulas
10
3000.00
20
3515.00
30
0.0
40
3.00
1
Tee #2
50
0.0
7
STANDARD
0
LWPOLYLINE
5
115
8
Valvulas
62
5
90
4
10
4515.00
20
1750.00
30
0.0
10
4492.50
20
1760.50
30
0.0
10
4492.50
20
1739.50
30
0.0
10
4515.00
20
1750.00
30
0.0
0
TEXT
5
116
8
Valvulas
10
4500.00
20
1765.00
30
0.0
40
3.00
1
V. Retenção
50
0.0
7
STANDARD
0
CIRCLE
5
117
8
Valvulas
62
2
10
1400.00
20
2800.00
30
0.0
40
15.00
0
LINE
5
118
8
Valvulas
62
2
10
1385.00
20
2800.00
30
0.0
11
1415.00
21
2800.00
31
0.0
0
LINE
5
119
8
Valvulas
62
2
10
1400.00
20
2785.00
30
0.0
11
1400.00
21
2815.00
31
0.0
0
TEXT
5
11A
8
Valvulas
10
1400.00
20
2815.00
30
0.0
40
3.00
1
Purgador de Ar
50
0.0
7
STANDARD
0
LINE
5
11B
8
Suportes
62
3
10
1992.00
20
2992.00
30
0.0
11
2008.00
21
3008.00
31
0.0
0
LINE
5
11C
8
Suportes
62
3
10
1992.00
20
3008.00
30
0.0
11
2008.00
21
2992.00
31
0.0
0
TEXT
5
11D
8
Suportes
10
2000.00
20
2985.00
30
0.0
40
2.50
1
Suporte-1
50
0.0
7
STANDARD
0
LINE
5
11E
8
Cotas
62
2
10
-2011.18
20
1022.36
30
0.0
11
5988.82
21
5022.36
31
0.0
39
10
0
LWPOLYLINE
5
11F
8
Cotas
62
2
90
3
10
-2009.39
20
1023.26
30
0.0
10
-2012.52
20
1022.81
30
0.0
10
-2011.63
20
1021.02
30
0.0
0
LWPOLYLINE
5
120
8
Cotas
62
2
90
3
10
5987.03
20
5021.47
30
0.0
10
5990.16
20
5021.91
30
0.0
10
5989.27
20
5023.70
30
0.0
0
TEXT
5
121
8
Cotas
62
2
10
1988.82
20
3027.36
30
0.0
40
3.00
1
8.00 mm
50
0.0
7
STANDARD
0
LINE
5
122
8
Cotas
62
2
10
-2017.89
20
1035.78
30
0.0
11
5982.11
21
5035.78
31
0.0
39
10
0
LWPOLYLINE
5
123
8
Cotas
62
2
90
3
10
-2016.10
20
1036.67
30
0.0
10
-2019.23
20
1036.22
30
0.0
10
-2018.34
20
1034.44
30
0.0
0
LWPOLYLINE
5
124
8
Cotas
62
2
90
3
10
5980.32
20
5034.88
30
0.0
10
5983.45
20
5035.33
30
0.0
10
5982.56
20
5037.12
30
0.0
0
TEXT
5
125
8
Cotas
62
2
10
1982.11
20
3040.78
30
0.0
40
3.00
1
8.00 (C-C)
50
0.0
7
STANDARD
0
LINE
5
126
8
Cotas
62
2
10
11.18
20
2022.36
30
0.0
11
1511.18
21
1272.36
31
0.0
39
10
0
LWPOLYLINE
5
127
8
Cotas
62
2
90
3
10
12.97
20
2021.47
30
0.0
10
10.73
20
2023.70
30
0.0
10
9.84
20
2021.91
30
0.0
0
LWPOLYLINE
5
128
8
Cotas
62
2
90
3
10
1509.39
20
1273.26
30
0.0
10
1511.63
20
1271.02
30
0.0
10
1512.52
20
1272.81
30
0.0
0
TEXT
5
129
8
Cotas
62
2
10
761.18
20
1652.36
30
0.0
40
3.00
1
1.50 mm
50
0.0
7
STANDARD
0
LINE
5
12A
8
Cotas
62
2
10
17.89
20
2035.78
30
0.0
11
1517.89
21
1285.78
31
0.0
39
10
0
LWPOLYLINE
5
12B
8
Cotas
62
2
90
3
10
19.68
20
2034.88
30
0.0
10
17.44
20
2037.12
30
0.0
10
16.55
20
2035.33
30
0.0
0
LWPOLYLINE
5
12C
8
Cotas
62
2
90
3
10
1516.10
20
1286.67
30
0.0
10
1518.34
20
1284.44
30
0.0
10
1519.23
20
1286.22
30
0.0
0
TEXT
5
12D
8
Cotas
62
2
10
767.89
20
1665.78
30
0.0
40
3.00
1
1.50 (C-C)
50
0.0
7
STANDARD
0
LINE
5
12E
8
Cotas
62
2
10
3018.98
20
3516.27
30
0.0
11
4518.98
21
1766.27
31
0.0
39
10
0
LWPOLYLINE
5
12F
8
Cotas
62
2
90
3
10
3020.28
20
3514.75
30
0.0
10
3019.09
20
3517.68
30
0.0
10
3017.57
20
3516.38
30
0.0
0
LWPOLYLINE
5
130
8
Cotas
62
2
90
3
10
4517.68
20
1767.79
30
0.0
10
4518.87
20
1764.86
30
0.0
10
4520.39
20
1766.16
30
0.0
0
TEXT
5
131
8
Cotas
62
2
10
3768.98
20
2646.27
30
0.0
40
3.00
1
1.80 mm
50
0.0
7
STANDARD
0
LINE
5
132
8
Cotas
62
2
10
3030.37
20
3526.03
30
0.0
11
4530.37
21
1776.03
31
0.0
39
10
0
LWPOLYLINE
5
133
8
Cotas
62
2
90
3
10
3031.67
20
3524.51
30
0.0
10
3030.48
20
3527.44
30
0.0
10
3028.96
20
3526.14
30
0.0
0
LWPOLYLINE
5
134
8
Cotas
62
2
90
3
10
4529.07
20
1777.55
30
0.0
10
4530.26
20
1774.62
30
0.0
10
4531.78
20
1775.92
30
0.0
0
TEXT
5
135
8
Cotas
62
2
10
3780.37
20
2656.03
30
0.0
40
3.00
1
1.80 (C-C)
50
0.0
7
STANDARD
0
LWPOLYLINE
5
136
8
BOM
62
7
90
5
10
-1020.00
20
-492.00
30
0.0
10
-160.00
20
-492.00
30
0.0
10
-160.00
20
-672.00
30
0.0
10
-1020.00
20
-672.00
30
0.0
10
-1020.00
20
-492.00
30
0.0
0
TEXT
5
137
8
BOM
62
7
10
-1000.0
20
-500.0
30
0.0
40
2.5
1
LISTA DE MATERIAIS (BOM)
50
0.0
7
STANDARD
0
TEXT
5
138
8
BOM
62
7
10
-1000.0
20
-512.0
30
0.0
40
2.5
1
========================================
50
0.0
7
STANDARD
0
TEXT
5
139
8
BOM
62
7
10
-1000.0
20
-524.0
30
0.0
40
2.5
1

TUBOS:
50
0.0
7
STANDARD
0
TEXT
5
13A
8
BOM
62
7
10
-1000.0
20
-536.0
30
0.0
40
2.5
1
  Ø 75mm x 8.00m (1 un) — Aço Carbono
50
0.0
7
STANDARD
0
TEXT
5
13B
8
BOM
62
7
10
-1000.0
20
-548.0
30
0.0
40
2.5
1
  Ø 50mm x 1.50m (1 un) — Aço Carbono
50
0.0
7
STANDARD
0
TEXT
5
13C
8
BOM
62
7
10
-1000.0
20
-560.0
30
0.0
40
2.5
1
  Ø 40mm x 1.80m (1 un) — Aço Carbono
50
0.0
7
STANDARD
0
TEXT
5
13D
8
BOM
62
7
10
-1000.0
20
-572.0
30
0.0
40
2.5
1

VÁLVULAS:
50
0.0
7
STANDARD
0
TEXT
5
13E
8
BOM
62
7
10
-1000.0
20
-584.0
30
0.0
40
2.5
1
  GAVETA Ø 75mm (1 un)
50
0.0
7
STANDARD
0
TEXT
5
13F
8
BOM
62
7
10
-1000.0
20
-596.0
30
0.0
40
2.5
1
  TEE Ø 75mm (2 un)
50
0.0
7
STANDARD
0
TEXT
5
140
8
BOM
62
7
10
-1000.0
20
-608.0
30
0.0
40
2.5
1
  GLOBO Ø 50mm (1 un)
50
0.0
7
STANDARD
0
TEXT
5
141
8
BOM
62
7
10
-1000.0
20
-620.0
30
0.0
40
2.5
1
  RETENÇÃO Ø 40mm (1 un)
50
0.0
7
STANDARD
0
TEXT
5
142
8
BOM
62
7
10
-1000.0
20
-632.0
30
0.0
40
2.5
1
  PURGADOR Ø 20mm (1 un)
50
0.0
7
STANDARD
0
TEXT
5
143
8
BOM
62
7
10
-1000.0
20
-644.0
30
0.0
40
2.5
1

SUPORTES:
50
0.0
7
STANDARD
0
TEXT
5
144
8
BOM
62
7
10
-1000.0
20
-656.0
30
0.0
40
2.5
1
  PÉ-DE-AMIGO (1 un)
50
0.0
7
STANDARD
0
ENDSEC
0
EOF
