0
SECTION
2
HEADER
9
$ACADVER
1
AC1015
9
$EXTMIN
10
-1000.0
20
-1000.0
30
0.0
9
$EXTMAX
10
5000.0
20
5000.0
30
0.0
0
ENDSEC
0
SECTION
2
TABLES
0
TABLE
2
LTYPE
70
1
0
LTYPE
2
CONTINUOUS
70
0
72
0
73
0
40
0.0
0
ENDTAB
0
TABLE
2
LAYER
70
7
0
LAYER
2
Tubos
70
0
62
7
6
CONTINUOUS
0
LAYER
2
Valvulas
70
0
62
7
6
CONTINUOUS
0
LAYER
2
Conexoes
70
0
62
7
6
CONTINUOUS
0
LAYER
2
Suportes
70
0
62
7
6
CONTINUOUS
0
LAYER
2
Cotas
70
0
62
7
6
CONTINUOUS
0
LAYER
2
BOM
70
0
62
7
6
CONTINUOUS
0
LAYER
2
0
70
0
62
7
6
CONTINUOUS
0
ENDTAB
0
TABLE
2
STYLE
70
1
0
STYLE
2
STANDARD
70
0
40
0.0
41
1.0
50
0.0
71
0
0
ENDTAB
0
ENDSEC
0
SECTION
2
ENTITIES
0
TEXT
5
101
8
0
62
1
10
-1000.0
20
500.0
30
0.0
40
5.0
1
Isometrico Validacao Final
50
0.0
7
STANDARD
0
TEXT
5
102
8
0
62
7
10
-1000.0
20
485.0
30
0.0
40
2.0
1
Data: 26/03/2026 13:47:11
50
0.0
7
STANDARD
0
LINE
5
103
8
Tubos
62
1
10
-2000.00
20
1000.00
30
0.0
11
6000.00
21
5000.00
31
0.0
39
50
0
LWPOLYLINE
5
104
8
Valvulas
62
1
90
5
10
-2015.00
20
1000.00
30
0.0
10
-2000.00
20
1015.00
30
0.0
10
-1985.00
20
1000.00
30
0.0
10
-2000.00
20
985.00
30
0.0
10
-2015.00
20
1000.00
30
0.0
0
LINE
5
105
8
Valvulas
62
1
10
-2010.50
20
989.50
30
0.0
11
-1989.50
21
1010.50
31
0.0
0
LINE
5
106
8
Suportes
62
3
10
1992.00
20
2992.00
30
0.0
11
2008.00
21
3008.00
31
0.0
0
LINE
5
107
8
Suportes
62
3
10
1992.00
20
3008.00
30
0.0
11
2008.00
21
2992.00
31
0.0
0
TEXT
5
108
8
Suportes
10
2000.00
20
2985.00
30
0.0
40
2.50
1
Suporte-1
50
0.0
7
STANDARD
0
LINE
5
109
8
Cotas
62
2
10
-2011.18
20
1022.36
30
0.0
11
5988.82
21
5022.36
31
0.0
39
10
0
LWPOLYLINE
5
10A
8
Cotas
62
2
90
3
10
-2009.39
20
1023.26
30
0.0
10
-2012.52
20
1022.81
30
0.0
10
-2011.63
20
1021.02
30
0.0
0
LWPOLYLINE
5
10B
8
Cotas
62
2
90
3
10
5987.03
20
5021.47
30
0.0
10
5990.16
20
5021.91
30
0.0
10
5989.27
20
5023.70
30
0.0
0
TEXT
5
10C
8
Cotas
62
2
10
1988.82
20
3027.36
30
0.0
40
3.00
1
8.00 mm
50
0.0
7
STANDARD
0
LINE
5
10D
8
Cotas
62
2
10
-2017.89
20
1035.78
30
0.0
11
5982.11
21
5035.78
31
0.0
39
10
0
LWPOLYLINE
5
10E
8
Cotas
62
2
90
3
10
-2016.10
20
1036.67
30
0.0
10
-2019.23
20
1036.22
30
0.0
10
-2018.34
20
1034.44
30
0.0
0
LWPOLYLINE
5
10F
8
Cotas
62
2
90
3
10
5980.32
20
5034.88
30
0.0
10
5983.45
20
5035.33
30
0.0
10
5982.56
20
5037.12
30
0.0
0
TEXT
5
110
8
Cotas
62
2
10
1982.11
20
3040.78
30
0.0
40
3.00
1
8.00 (C-C)
50
0.0
7
STANDARD
0
LWPOLYLINE
5
111
8
BOM
62
7
90
5
10
-1020.00
20
-492.00
30
0.0
10
-160.00
20
-492.00
30
0.0
10
-160.00
20
-600.00
30
0.0
10
-1020.00
20
-600.00
30
0.0
10
-1020.00
20
-492.00
30
0.0
0
TEXT
5
112
8
BOM
62
7
10
-1000.0
20
-500.0
30
0.0
40
2.5
1
LISTA DE MATERIAIS (BOM)
50
0.0
7
STANDARD
0
TEXT
5
113
8
BOM
62
7
10
-1000.0
20
-512.0
30
0.0
40
2.5
1
========================================
50
0.0
7
STANDARD
0
TEXT
5
114
8
BOM
62
7
10
-1000.0
20
-524.0
30
0.0
40
2.5
1

TUBOS:
50
0.0
7
STANDARD
0
TEXT
5
115
8
BOM
62
7
10
-1000.0
20
-536.0
30
0.0
40
2.5
1
  Ø 75mm x 8.00m (1 un) — Aço Carbono
50
0.0
7
STANDARD
0
TEXT
5
116
8
BOM
62
7
10
-1000.0
20
-548.0
30
0.0
40
2.5
1

VÁLVULAS:
50
0.0
7
STANDARD
0
TEXT
5
117
8
BOM
62
7
10
-1000.0
20
-560.0
30
0.0
40
2.5
1
  GAVETA Ø 75mm (1 un)
50
0.0
7
STANDARD
0
TEXT
5
118
8
BOM
62
7
10
-1000.0
20
-572.0
30
0.0
40
2.5
1

SUPORTES:
50
0.0
7
STANDARD
0
TEXT
5
119
8
BOM
62
7
10
-1000.0
20
-584.0
30
0.0
40
2.5
1
  PÉ-DE-AMIGO (1 un)
50
0.0
7
STANDARD
0
ENDSEC
0
EOF
