0
SECTION
2
HEADER
9
$ACADVER
1
AC1015
9
$EXTMIN
10
-1000.0
20
-1000.0
30
0.0
9
$EXTMAX
10
5000.0
20
5000.0
30
0.0
0
ENDSEC
0
SECTION
2
TABLES
0
TABLE
2
LTYPE
70
1
0
LTYPE
2
CONTINUOUS
70
0
72
0
73
0
40
0.0
0
ENDTAB
0
TABLE
2
LAYER
70
7
0
LAYER
2
Tubos
70
0
62
7
6
CONTINUOUS
0
LAYER
2
Valvulas
70
0
62
7
6
CONTINUOUS
0
LAYER
2
Conexoes
70
0
62
7
6
CONTINUOUS
0
LAYER
2
Suportes
70
0
62
7
6
CONTINUOUS
0
LAYER
2
Cotas
70
0
62
7
6
CONTINUOUS
0
LAYER
2
BOM
70
0
62
7
6
CONTINUOUS
0
LAYER
2
0
70
0
62
7
6
CONTINUOUS
0
ENDTAB
0
TABLE
2
STYLE
70
1
0
STYLE
2
STANDARD
70
0
40
0.0
41
1.0
50
0.0
71
0
0
ENDTAB
0
ENDSEC
0
SECTION
2
ENTITIES
0
TEXT
5
101
8
0
62
1
10
-1000.0
20
500.0
30
0.0
40
5.0
1
Isometrico Validacao
50
0.0
7
STANDARD
0
TEXT
5
102
8
0
62
7
10
-1000.0
20
485.0
30
0.0
40
2.0
1
Data: 26/03/2026 09:06:59
50
0.0
7
STANDARD
0
LINE
5
103
8
Tubos
62
1
10
0.00
20
0.00
30
0.0
11
4000.00
21
2000.00
31
0.0
39
50
0
TEXT
5
104
8
Tubos
10
2000.00
20
1000.00
30
0.0
40
3.00
1
Linha Principal
50
0.0
7
STANDARD
0
LINE
5
105
8
Tubos
62
1
10
4000.00
20
2000.00
30
0.0
11
6000.00
21
1000.00
31
0.0
39
50
0
TEXT
5
106
8
Tubos
10
5000.00
20
1500.00
30
0.0
40
3.00
1
Descida
50
0.0
7
STANDARD
0
LWPOLYLINE
5
107
8
Valvulas
62
1
90
5
10
-15.00
20
0.00
30
0.0
10
0.00
20
15.00
30
0.0
10
15.00
20
0.00
30
0.0
10
0.00
20
-15.00
30
0.0
10
-15.00
20
0.00
30
0.0
0
LINE
5
108
8
Valvulas
62
1
10
-10.50
20
-10.50
30
0.0
11
10.50
21
10.50
31
0.0
0
TEXT
5
109
8
Valvulas
10
0.00
20
15.00
30
0.0
40
3.00
1
V. Gaveta
50
0.0
7
STANDARD
0
CIRCLE
5
10A
8
Valvulas
62
3
10
6000.00
20
1000.00
30
0.0
40
15.00
0
LINE
5
10B
8
Valvulas
62
3
10
5985.00
20
1000.00
30
0.0
11
6015.00
21
1000.00
31
0.0
0
TEXT
5
10C
8
Valvulas
10
6000.00
20
1015.00
30
0.0
40
3.00
1
V. Globo
50
0.0
7
STANDARD
0
LWPOLYLINE
5
10D
8
Valvulas
62
5
90
4
10
2015.00
20
1000.00
30
0.0
10
1992.50
20
1010.50
30
0.0
10
1992.50
20
989.50
30
0.0
10
2015.00
20
1000.00
30
0.0
0
TEXT
5
10E
8
Valvulas
10
2000.00
20
1015.00
30
0.0
40
3.00
1
V. Retencao
50
0.0
7
STANDARD
0
CIRCLE
5
10F
8
Valvulas
62
2
10
1000.00
20
500.00
30
0.0
40
15.00
0
LINE
5
110
8
Valvulas
62
2
10
985.00
20
500.00
30
0.0
11
1015.00
21
500.00
31
0.0
0
LINE
5
111
8
Valvulas
62
2
10
1000.00
20
485.00
30
0.0
11
1000.00
21
515.00
31
0.0
0
TEXT
5
112
8
Valvulas
10
1000.00
20
515.00
30
0.0
40
3.00
1
Purgador
50
0.0
7
STANDARD
0
LINE
5
113
8
Suportes
62
3
10
1992.00
20
992.00
30
0.0
11
2008.00
21
1008.00
31
0.0
0
LINE
5
114
8
Suportes
62
3
10
1992.00
20
1008.00
30
0.0
11
2008.00
21
992.00
31
0.0
0
TEXT
5
115
8
Suportes
10
2000.00
20
985.00
30
0.0
40
2.50
1
Suporte-1
50
0.0
7
STANDARD
0
LINE
5
116
8
Cotas
62
2
10
-11.18
20
22.36
30
0.0
11
3988.82
21
2022.36
31
0.0
39
10
0
LWPOLYLINE
5
117
8
Cotas
62
2
90
3
10
-9.39
20
23.26
30
0.0
10
-12.52
20
22.81
30
0.0
10
-11.63
20
21.02
30
0.0
0
LWPOLYLINE
5
118
8
Cotas
62
2
90
3
10
3987.03
20
2021.47
30
0.0
10
3990.16
20
2021.91
30
0.0
10
3989.27
20
2023.70
30
0.0
0
TEXT
5
119
8
Cotas
62
2
10
1988.82
20
1027.36
30
0.0
40
3.00
1
4.00 mm
50
0.0
7
STANDARD
0
LINE
5
11A
8
Cotas
62
2
10
-17.89
20
35.78
30
0.0
11
3982.11
21
2035.78
31
0.0
39
10
0
LWPOLYLINE
5
11B
8
Cotas
62
2
90
3
10
-16.10
20
36.67
30
0.0
10
-19.23
20
36.22
30
0.0
10
-18.34
20
34.44
30
0.0
0
LWPOLYLINE
5
11C
8
Cotas
62
2
90
3
10
3980.32
20
2034.88
30
0.0
10
3983.45
20
2035.33
30
0.0
10
3982.56
20
2037.12
30
0.0
0
TEXT
5
11D
8
Cotas
62
2
10
1982.11
20
1040.78
30
0.0
40
3.00
1
4.00 (C-C)
50
0.0
7
STANDARD
0
LINE
5
11E
8
Cotas
62
2
10
4011.18
20
2022.36
30
0.0
11
6011.18
21
1022.36
31
0.0
39
10
0
LWPOLYLINE
5
11F
8
Cotas
62
2
90
3
10
4012.97
20
2021.47
30
0.0
10
4010.73
20
2023.70
30
0.0
10
4009.84
20
2021.91
30
0.0
0
LWPOLYLINE
5
120
8
Cotas
62
2
90
3
10
6009.39
20
1023.26
30
0.0
10
6011.63
20
1021.02
30
0.0
10
6012.52
20
1022.81
30
0.0
0
TEXT
5
121
8
Cotas
62
2
10
5011.18
20
1527.36
30
0.0
40
3.00
1
2.00 mm
50
0.0
7
STANDARD
0
LINE
5
122
8
Cotas
62
2
10
4017.89
20
2035.78
30
0.0
11
6017.89
21
1035.78
31
0.0
39
10
0
LWPOLYLINE
5
123
8
Cotas
62
2
90
3
10
4019.68
20
2034.88
30
0.0
10
4017.44
20
2037.12
30
0.0
10
4016.55
20
2035.33
30
0.0
0
LWPOLYLINE
5
124
8
Cotas
62
2
90
3
10
6016.10
20
1036.67
30
0.0
10
6018.34
20
1034.44
30
0.0
10
6019.23
20
1036.22
30
0.0
0
TEXT
5
125
8
Cotas
62
2
10
5017.89
20
1540.78
30
0.0
40
3.00
1
2.00 (C-C)
50
0.0
7
STANDARD
0
LWPOLYLINE
5
126
8
BOM
62
7
90
5
10
-1020.00
20
-492.00
30
0.0
10
-160.00
20
-492.00
30
0.0
10
-160.00
20
-636.00
30
0.0
10
-1020.00
20
-636.00
30
0.0
10
-1020.00
20
-492.00
30
0.0
0
TEXT
5
127
8
BOM
62
7
10
-1000.0
20
-500.0
30
0.0
40
2.5
1
LISTA DE MATERIAIS (BOM)
50
0.0
7
STANDARD
0
TEXT
5
128
8
BOM
62
7
10
-1000.0
20
-512.0
30
0.0
40
2.5
1
========================================
50
0.0
7
STANDARD
0
TEXT
5
129
8
BOM
62
7
10
-1000.0
20
-524.0
30
0.0
40
2.5
1

TUBOS:
50
0.0
7
STANDARD
0
TEXT
5
12A
8
BOM
62
7
10
-1000.0
20
-536.0
30
0.0
40
2.5
1
  Ø 75mm x 6.00m (2 un) — Aço Carbono
50
0.0
7
STANDARD
0
TEXT
5
12B
8
BOM
62
7
10
-1000.0
20
-548.0
30
0.0
40
2.5
1

VÁLVULAS:
50
0.0
7
STANDARD
0
TEXT
5
12C
8
BOM
62
7
10
-1000.0
20
-560.0
30
0.0
40
2.5
1
  GAVETA Ø 75mm (1 un)
50
0.0
7
STANDARD
0
TEXT
5
12D
8
BOM
62
7
10
-1000.0
20
-572.0
30
0.0
40
2.5
1
  GLOBO Ø 75mm (1 un)
50
0.0
7
STANDARD
0
TEXT
5
12E
8
BOM
62
7
10
-1000.0
20
-584.0
30
0.0
40
2.5
1
  RETENÇÃO Ø 75mm (1 un)
50
0.0
7
STANDARD
0
TEXT
5
12F
8
BOM
62
7
10
-1000.0
20
-596.0
30
0.0
40
2.5
1
  PURGADOR Ø 20mm (1 un)
50
0.0
7
STANDARD
0
TEXT
5
130
8
BOM
62
7
10
-1000.0
20
-608.0
30
0.0
40
2.5
1

SUPORTES:
50
0.0
7
STANDARD
0
TEXT
5
131
8
BOM
62
7
10
-1000.0
20
-620.0
30
0.0
40
2.5
1
  PÉ-DE-AMIGO (1 un)
50
0.0
7
STANDARD
0
ENDSEC
0
EOF
