0
SECTION
2
HEADER
0
ENDSEC
0
SECTION
2
TABLES
0
TABLE
2
APPID
70
1
0
APPID
2
SMARTDESIGN
70
0
0
ENDTAB
0
ENDSEC
0
SECTION
2
ENTITIES
0
LINE
8
ESTR_PORTICOS
10
0.0
20
0.0
30
0.0
11
0.0
21
8000.0
31
0.0
1001
SMARTDESIGN
1000
{"trace_id": "SD-POR-3d7c9fe96d", "categoria": "PORTICO_COMPLETO", "origem": "generate_full_unit_project", "data_criacao": "2026-03-25T16:57:26.581667+00:00", "versao_norma_aplicada": "1.0.0", "status_validacao_carga": "ok", "perfil": "W410x60", "material": "ASTM A572 Gr. 50", "peso_estimado_kg": 2460.0, "eta": 0.2243}
0
LINE
8
ESTR_PORTICOS
10
25000.0
20
0.0
30
0.0
11
25000.0
21
8000.0
31
0.0
1001
SMARTDESIGN
1000
{"trace_id": "SD-POR-3d7c9fe96d", "categoria": "PORTICO_COMPLETO", "origem": "generate_full_unit_project", "data_criacao": "2026-03-25T16:57:26.581667+00:00", "versao_norma_aplicada": "1.0.0", "status_validacao_carga": "ok", "perfil": "W410x60", "material": "ASTM A572 Gr. 50", "peso_estimado_kg": 2460.0, "eta": 0.2243}
0
LINE
8
ESTR_PORTICOS
10
0.0
20
8000.0
30
0.0
11
25000.0
21
8000.0
31
0.0
1001
SMARTDESIGN
1000
{"trace_id": "SD-POR-3d7c9fe96d", "categoria": "PORTICO_COMPLETO", "origem": "generate_full_unit_project", "data_criacao": "2026-03-25T16:57:26.581667+00:00", "versao_norma_aplicada": "1.0.0", "status_validacao_carga": "ok", "perfil": "W410x60", "material": "ASTM A572 Gr. 50", "peso_estimado_kg": 2460.0, "eta": 0.2243}
0
LINE
8
ESTR_PORTICOS
10
0.0
20
0.0
30
6000.0
11
0.0
21
8000.0
31
6000.0
1001
SMARTDESIGN
1000
{"trace_id": "SD-POR-9ec0f364c2", "categoria": "PORTICO_COMPLETO", "origem": "generate_full_unit_project", "data_criacao": "2026-03-25T16:57:26.582032+00:00", "versao_norma_aplicada": "1.0.0", "status_validacao_carga": "ok", "perfil": "W410x60", "material": "ASTM A572 Gr. 50", "peso_estimado_kg": 2460.0, "eta": 0.2243}
0
LINE
8
ESTR_PORTICOS
10
25000.0
20
0.0
30
6000.0
11
25000.0
21
8000.0
31
6000.0
1001
SMARTDESIGN
1000
{"trace_id": "SD-POR-9ec0f364c2", "categoria": "PORTICO_COMPLETO", "origem": "generate_full_unit_project", "data_criacao": "2026-03-25T16:57:26.582032+00:00", "versao_norma_aplicada": "1.0.0", "status_validacao_carga": "ok", "perfil": "W410x60", "material": "ASTM A572 Gr. 50", "peso_estimado_kg": 2460.0, "eta": 0.2243}
0
LINE
8
ESTR_PORTICOS
10
0.0
20
8000.0
30
6000.0
11
25000.0
21
8000.0
31
6000.0
1001
SMARTDESIGN
1000
{"trace_id": "SD-POR-9ec0f364c2", "categoria": "PORTICO_COMPLETO", "origem": "generate_full_unit_project", "data_criacao": "2026-03-25T16:57:26.582032+00:00", "versao_norma_aplicada": "1.0.0", "status_validacao_carga": "ok", "perfil": "W410x60", "material": "ASTM A572 Gr. 50", "peso_estimado_kg": 2460.0, "eta": 0.2243}
0
LINE
8
ESTR_PORTICOS
10
0.0
20
0.0
30
12000.0
11
0.0
21
8000.0
31
12000.0
1001
SMARTDESIGN
1000
{"trace_id": "SD-POR-4e277b6a6d", "categoria": "PORTICO_COMPLETO", "origem": "generate_full_unit_project", "data_criacao": "2026-03-25T16:57:26.582617+00:00", "versao_norma_aplicada": "1.0.0", "status_validacao_carga": "ok", "perfil": "W410x60", "material": "ASTM A572 Gr. 50", "peso_estimado_kg": 2460.0, "eta": 0.2243}
0
LINE
8
ESTR_PORTICOS
10
25000.0
20
0.0
30
12000.0
11
25000.0
21
8000.0
31
12000.0
1001
SMARTDESIGN
1000
{"trace_id": "SD-POR-4e277b6a6d", "categoria": "PORTICO_COMPLETO", "origem": "generate_full_unit_project", "data_criacao": "2026-03-25T16:57:26.582617+00:00", "versao_norma_aplicada": "1.0.0", "status_validacao_carga": "ok", "perfil": "W410x60", "material": "ASTM A572 Gr. 50", "peso_estimado_kg": 2460.0, "eta": 0.2243}
0
LINE
8
ESTR_PORTICOS
10
0.0
20
8000.0
30
12000.0
11
25000.0
21
8000.0
31
12000.0
1001
SMARTDESIGN
1000
{"trace_id": "SD-POR-4e277b6a6d", "categoria": "PORTICO_COMPLETO", "origem": "generate_full_unit_project", "data_criacao": "2026-03-25T16:57:26.582617+00:00", "versao_norma_aplicada": "1.0.0", "status_validacao_carga": "ok", "perfil": "W410x60", "material": "ASTM A572 Gr. 50", "peso_estimado_kg": 2460.0, "eta": 0.2243}
0
LINE
8
ESTR_PORTICOS
10
0.0
20
0.0
30
18000.0
11
0.0
21
8000.0
31
18000.0
1001
SMARTDESIGN
1000
{"trace_id": "SD-POR-8505f03da3", "categoria": "PORTICO_COMPLETO", "origem": "generate_full_unit_project", "data_criacao": "2026-03-25T16:57:26.582943+00:00", "versao_norma_aplicada": "1.0.0", "status_validacao_carga": "ok", "perfil": "W410x60", "material": "ASTM A572 Gr. 50", "peso_estimado_kg": 2460.0, "eta": 0.2243}
0
LINE
8
ESTR_PORTICOS
10
25000.0
20
0.0
30
18000.0
11
25000.0
21
8000.0
31
18000.0
1001
SMARTDESIGN
1000
{"trace_id": "SD-POR-8505f03da3", "categoria": "PORTICO_COMPLETO", "origem": "generate_full_unit_project", "data_criacao": "2026-03-25T16:57:26.582943+00:00", "versao_norma_aplicada": "1.0.0", "status_validacao_carga": "ok", "perfil": "W410x60", "material": "ASTM A572 Gr. 50", "peso_estimado_kg": 2460.0, "eta": 0.2243}
0
LINE
8
ESTR_PORTICOS
10
0.0
20
8000.0
30
18000.0
11
25000.0
21
8000.0
31
18000.0
1001
SMARTDESIGN
1000
{"trace_id": "SD-POR-8505f03da3", "categoria": "PORTICO_COMPLETO", "origem": "generate_full_unit_project", "data_criacao": "2026-03-25T16:57:26.582943+00:00", "versao_norma_aplicada": "1.0.0", "status_validacao_carga": "ok", "perfil": "W410x60", "material": "ASTM A572 Gr. 50", "peso_estimado_kg": 2460.0, "eta": 0.2243}
0
LINE
8
ESTR_PORTICOS
10
0.0
20
0.0
30
24000.0
11
0.0
21
8000.0
31
24000.0
1001
SMARTDESIGN
1000
{"trace_id": "SD-POR-fd15fa87dc", "categoria": "PORTICO_COMPLETO", "origem": "generate_full_unit_project", "data_criacao": "2026-03-25T16:57:26.583248+00:00", "versao_norma_aplicada": "1.0.0", "status_validacao_carga": "ok", "perfil": "W410x60", "material": "ASTM A572 Gr. 50", "peso_estimado_kg": 2460.0, "eta": 0.2243}
0
LINE
8
ESTR_PORTICOS
10
25000.0
20
0.0
30
24000.0
11
25000.0
21
8000.0
31
24000.0
1001
SMARTDESIGN
1000
{"trace_id": "SD-POR-fd15fa87dc", "categoria": "PORTICO_COMPLETO", "origem": "generate_full_unit_project", "data_criacao": "2026-03-25T16:57:26.583248+00:00", "versao_norma_aplicada": "1.0.0", "status_validacao_carga": "ok", "perfil": "W410x60", "material": "ASTM A572 Gr. 50", "peso_estimado_kg": 2460.0, "eta": 0.2243}
0
LINE
8
ESTR_PORTICOS
10
0.0
20
8000.0
30
24000.0
11
25000.0
21
8000.0
31
24000.0
1001
SMARTDESIGN
1000
{"trace_id": "SD-POR-fd15fa87dc", "categoria": "PORTICO_COMPLETO", "origem": "generate_full_unit_project", "data_criacao": "2026-03-25T16:57:26.583248+00:00", "versao_norma_aplicada": "1.0.0", "status_validacao_carga": "ok", "perfil": "W410x60", "material": "ASTM A572 Gr. 50", "peso_estimado_kg": 2460.0, "eta": 0.2243}
0
LINE
8
ESTR_PORTICOS
10
0.0
20
0.0
30
30000.0
11
0.0
21
8000.0
31
30000.0
1001
SMARTDESIGN
1000
{"trace_id": "SD-POR-2e6054bf8f", "categoria": "PORTICO_COMPLETO", "origem": "generate_full_unit_project", "data_criacao": "2026-03-25T16:57:26.583781+00:00", "versao_norma_aplicada": "1.0.0", "status_validacao_carga": "ok", "perfil": "W410x60", "material": "ASTM A572 Gr. 50", "peso_estimado_kg": 2460.0, "eta": 0.2243}
0
LINE
8
ESTR_PORTICOS
10
25000.0
20
0.0
30
30000.0
11
25000.0
21
8000.0
31
30000.0
1001
SMARTDESIGN
1000
{"trace_id": "SD-POR-2e6054bf8f", "categoria": "PORTICO_COMPLETO", "origem": "generate_full_unit_project", "data_criacao": "2026-03-25T16:57:26.583781+00:00", "versao_norma_aplicada": "1.0.0", "status_validacao_carga": "ok", "perfil": "W410x60", "material": "ASTM A572 Gr. 50", "peso_estimado_kg": 2460.0, "eta": 0.2243}
0
LINE
8
ESTR_PORTICOS
10
0.0
20
8000.0
30
30000.0
11
25000.0
21
8000.0
31
30000.0
1001
SMARTDESIGN
1000
{"trace_id": "SD-POR-2e6054bf8f", "categoria": "PORTICO_COMPLETO", "origem": "generate_full_unit_project", "data_criacao": "2026-03-25T16:57:26.583781+00:00", "versao_norma_aplicada": "1.0.0", "status_validacao_carga": "ok", "perfil": "W410x60", "material": "ASTM A572 Gr. 50", "peso_estimado_kg": 2460.0, "eta": 0.2243}
0
LINE
8
ESTR_PORTICOS
10
0.0
20
0.0
30
36000.0
11
0.0
21
8000.0
31
36000.0
1001
SMARTDESIGN
1000
{"trace_id": "SD-POR-abd8862d31", "categoria": "PORTICO_COMPLETO", "origem": "generate_full_unit_project", "data_criacao": "2026-03-25T16:57:26.584095+00:00", "versao_norma_aplicada": "1.0.0", "status_validacao_carga": "ok", "perfil": "W410x60", "material": "ASTM A572 Gr. 50", "peso_estimado_kg": 2460.0, "eta": 0.2243}
0
LINE
8
ESTR_PORTICOS
10
25000.0
20
0.0
30
36000.0
11
25000.0
21
8000.0
31
36000.0
1001
SMARTDESIGN
1000
{"trace_id": "SD-POR-abd8862d31", "categoria": "PORTICO_COMPLETO", "origem": "generate_full_unit_project", "data_criacao": "2026-03-25T16:57:26.584095+00:00", "versao_norma_aplicada": "1.0.0", "status_validacao_carga": "ok", "perfil": "W410x60", "material": "ASTM A572 Gr. 50", "peso_estimado_kg": 2460.0, "eta": 0.2243}
0
LINE
8
ESTR_PORTICOS
10
0.0
20
8000.0
30
36000.0
11
25000.0
21
8000.0
31
36000.0
1001
SMARTDESIGN
1000
{"trace_id": "SD-POR-abd8862d31", "categoria": "PORTICO_COMPLETO", "origem": "generate_full_unit_project", "data_criacao": "2026-03-25T16:57:26.584095+00:00", "versao_norma_aplicada": "1.0.0", "status_validacao_carga": "ok", "perfil": "W410x60", "material": "ASTM A572 Gr. 50", "peso_estimado_kg": 2460.0, "eta": 0.2243}
0
LINE
8
ESTR_PORTICOS
10
0.0
20
0.0
30
42000.0
11
0.0
21
8000.0
31
42000.0
1001
SMARTDESIGN
1000
{"trace_id": "SD-POR-ef3370e5cc", "categoria": "PORTICO_COMPLETO", "origem": "generate_full_unit_project", "data_criacao": "2026-03-25T16:57:26.584400+00:00", "versao_norma_aplicada": "1.0.0", "status_validacao_carga": "ok", "perfil": "W410x60", "material": "ASTM A572 Gr. 50", "peso_estimado_kg": 2460.0, "eta": 0.2243}
0
LINE
8
ESTR_PORTICOS
10
25000.0
20
0.0
30
42000.0
11
25000.0
21
8000.0
31
42000.0
1001
SMARTDESIGN
1000
{"trace_id": "SD-POR-ef3370e5cc", "categoria": "PORTICO_COMPLETO", "origem": "generate_full_unit_project", "data_criacao": "2026-03-25T16:57:26.584400+00:00", "versao_norma_aplicada": "1.0.0", "status_validacao_carga": "ok", "perfil": "W410x60", "material": "ASTM A572 Gr. 50", "peso_estimado_kg": 2460.0, "eta": 0.2243}
0
LINE
8
ESTR_PORTICOS
10
0.0
20
8000.0
30
42000.0
11
25000.0
21
8000.0
31
42000.0
1001
SMARTDESIGN
1000
{"trace_id": "SD-POR-ef3370e5cc", "categoria": "PORTICO_COMPLETO", "origem": "generate_full_unit_project", "data_criacao": "2026-03-25T16:57:26.584400+00:00", "versao_norma_aplicada": "1.0.0", "status_validacao_carga": "ok", "perfil": "W410x60", "material": "ASTM A572 Gr. 50", "peso_estimado_kg": 2460.0, "eta": 0.2243}
0
LINE
8
ESTR_PORTICOS
10
0.0
20
0.0
30
48000.0
11
0.0
21
8000.0
31
48000.0
1001
SMARTDESIGN
1000
{"trace_id": "SD-POR-e5fa1b51a5", "categoria": "PORTICO_COMPLETO", "origem": "generate_full_unit_project", "data_criacao": "2026-03-25T16:57:26.584704+00:00", "versao_norma_aplicada": "1.0.0", "status_validacao_carga": "ok", "perfil": "W410x60", "material": "ASTM A572 Gr. 50", "peso_estimado_kg": 2460.0, "eta": 0.2243}
0
LINE
8
ESTR_PORTICOS
10
25000.0
20
0.0
30
48000.0
11
25000.0
21
8000.0
31
48000.0
1001
SMARTDESIGN
1000
{"trace_id": "SD-POR-e5fa1b51a5", "categoria": "PORTICO_COMPLETO", "origem": "generate_full_unit_project", "data_criacao": "2026-03-25T16:57:26.584704+00:00", "versao_norma_aplicada": "1.0.0", "status_validacao_carga": "ok", "perfil": "W410x60", "material": "ASTM A572 Gr. 50", "peso_estimado_kg": 2460.0, "eta": 0.2243}
0
LINE
8
ESTR_PORTICOS
10
0.0
20
8000.0
30
48000.0
11
25000.0
21
8000.0
31
48000.0
1001
SMARTDESIGN
1000
{"trace_id": "SD-POR-e5fa1b51a5", "categoria": "PORTICO_COMPLETO", "origem": "generate_full_unit_project", "data_criacao": "2026-03-25T16:57:26.584704+00:00", "versao_norma_aplicada": "1.0.0", "status_validacao_carga": "ok", "perfil": "W410x60", "material": "ASTM A572 Gr. 50", "peso_estimado_kg": 2460.0, "eta": 0.2243}
0
LINE
8
ESTR_PORTICOS
10
0.0
20
0.0
30
54000.0
11
0.0
21
8000.0
31
54000.0
1001
SMARTDESIGN
1000
{"trace_id": "SD-POR-fbff08b868", "categoria": "PORTICO_COMPLETO", "origem": "generate_full_unit_project", "data_criacao": "2026-03-25T16:57:26.585290+00:00", "versao_norma_aplicada": "1.0.0", "status_validacao_carga": "ok", "perfil": "W410x60", "material": "ASTM A572 Gr. 50", "peso_estimado_kg": 2460.0, "eta": 0.2243}
0
LINE
8
ESTR_PORTICOS
10
25000.0
20
0.0
30
54000.0
11
25000.0
21
8000.0
31
54000.0
1001
SMARTDESIGN
1000
{"trace_id": "SD-POR-fbff08b868", "categoria": "PORTICO_COMPLETO", "origem": "generate_full_unit_project", "data_criacao": "2026-03-25T16:57:26.585290+00:00", "versao_norma_aplicada": "1.0.0", "status_validacao_carga": "ok", "perfil": "W410x60", "material": "ASTM A572 Gr. 50", "peso_estimado_kg": 2460.0, "eta": 0.2243}
0
LINE
8
ESTR_PORTICOS
10
0.0
20
8000.0
30
54000.0
11
25000.0
21
8000.0
31
54000.0
1001
SMARTDESIGN
1000
{"trace_id": "SD-POR-fbff08b868", "categoria": "PORTICO_COMPLETO", "origem": "generate_full_unit_project", "data_criacao": "2026-03-25T16:57:26.585290+00:00", "versao_norma_aplicada": "1.0.0", "status_validacao_carga": "ok", "perfil": "W410x60", "material": "ASTM A572 Gr. 50", "peso_estimado_kg": 2460.0, "eta": 0.2243}
0
LINE
8
MEC_ESCADAS
10
800.0
20
0.0
30
900.0
11
800.0
21
8000.0
31
900.0
1001
SMARTDESIGN
1000
{"trace_id": "SD-ESC-0033783c61", "categoria": "ESCADA_MARINHEIRO", "origem": "generate_full_unit_project", "data_criacao": "2026-03-25T16:57:27.945367+00:00", "versao_norma_aplicada": "1.0.0", "status_validacao_carga": "ok", "norma": "N-1710/NR-12", "peso_total_kg": 176.5}
0
LINE
8
PIPING
10
1500.0
20
7000.0
30
0.0
11
23500.0
21
7000.0
31
0.0
1001
SMARTDESIGN
1000
{"trace_id": "SD-TUB-f82c33e0f2", "categoria": "TUBULACAO", "origem": "generate_full_unit_project", "data_criacao": "2026-03-25T16:57:27.945430+00:00", "versao_norma_aplicada": "1.0.0", "status_validacao_carga": "ok", "material": "ASTM A106 Gr.B", "schedule": "STD"}
0
LINE
8
PIPING
10
23500.0
20
7000.0
30
0.0
11
23500.0
21
7000.0
31
0.0
1001
SMARTDESIGN
1000
{"trace_id": "SD-TUB-f82c33e0f2", "categoria": "TUBULACAO", "origem": "generate_full_unit_project", "data_criacao": "2026-03-25T16:57:27.945430+00:00", "versao_norma_aplicada": "1.0.0", "status_validacao_carga": "ok", "material": "ASTM A106 Gr.B", "schedule": "STD"}
0
LINE
8
PIPING
10
23500.0
20
7000.0
30
0.0
11
23500.0
21
7000.0
31
6000.0
1001
SMARTDESIGN
1000
{"trace_id": "SD-TUB-f82c33e0f2", "categoria": "TUBULACAO", "origem": "generate_full_unit_project", "data_criacao": "2026-03-25T16:57:27.945430+00:00", "versao_norma_aplicada": "1.0.0", "status_validacao_carga": "ok", "material": "ASTM A106 Gr.B", "schedule": "STD"}
0
ENDSEC
0
EOF